<svg xmlns="http://www.w3.org/2000/svg" viewBox="0 0 640 360">
  <defs>
    <linearGradient id="bg" x1="0" x2="1" y1="0" y2="1">
      <stop offset="0" stop-color="#fff1fb"/>
      <stop offset=".48" stop-color="#b393ff"/>
      <stop offset="1" stop-color="#1f78ff"/>
    </linearGradient>
    <filter id="glow" x="-30%" y="-30%" width="160%" height="160%">
      <feGaussianBlur stdDeviation="8" result="b"/>
      <feMerge><feMergeNode in="b"/><feMergeNode in="SourceGraphic"/></feMerge>
    </filter>
  </defs>
  <rect width="640" height="360" rx="24" fill="url(#bg)"/>
  <path d="M0 260c92-48 172-38 242-18 105 31 186 42 398-38v156H0z" fill="#0d1b2a" opacity=".72"/>
  <g filter="url(#glow)">
    <rect x="152" y="62" width="336" height="206" rx="24" fill="#ffffff" opacity=".92"/>
    <rect x="176" y="90" width="84" height="132" rx="18" fill="#ff5f9e"/>
    <rect x="278" y="90" width="84" height="132" rx="18" fill="#ffcf4a"/>
    <rect x="380" y="90" width="84" height="132" rx="18" fill="#19c37d"/>
    <text x="218" y="170" text-anchor="middle" font-family="Arial, sans-serif" font-size="48" font-weight="900" fill="#fff">糖</text>
    <text x="320" y="170" text-anchor="middle" font-family="Arial, sans-serif" font-size="48" font-weight="900" fill="#172033">7</text>
    <text x="422" y="170" text-anchor="middle" font-family="Arial, sans-serif" font-size="48" font-weight="900" fill="#fff">彩</text>
  </g>
  <circle cx="90" cy="86" r="38" fill="#ffcf4a" opacity=".9"/>
  <circle cx="550" cy="78" r="32" fill="#ff5f9e" opacity=".88"/>
  <text x="320" y="315" text-anchor="middle" font-family="Arial, sans-serif" font-size="34" font-weight="900" fill="#fff">CANDY POP</text>
</svg>
